<?xml version="1.0" encoding="UTF-8" standalone="no"?>
<svg width="95px" height="54px" viewBox="0 0 95 54" version="1.1" xmlns="http://www.w3.org/2000/svg" xmlns:xlink="http://www.w3.org/1999/xlink" xmlns:sketch="http://www.bohemiancoding.com/sketch/ns">
    <!-- Generator: Sketch 3.0.4 (8054) - http://www.bohemiancoding.com/sketch -->
    <title>arrow-down@1x</title>
    <desc>Created with Sketch.</desc>
    <defs></defs>
    <g id="Agile-info-Final-Page" stroke="none" stroke-width="1" fill="none" fill-rule="evenodd" sketch:type="MSPage">
        <g id="Agile_site-layout" sketch:type="MSArtboardGroup" transform="translate(-667.000000, -857.000000)" fill="#265B80">
            <g id="header-logo-and-tag" sketch:type="MSLayerGroup" transform="translate(-47.000000, -105.000000)">
                <g id="arrow-down" transform="translate(714.000000, 961.802812)" sketch:type="MSShapeGroup">
                    <path d="M93.8834014,11.4513148 L94.7585599,11.4513148 L47.5,34 L0.241440097,11.4513148 L1.11659861,11.4513148 L47.5,28.5238907 L93.8834014,11.4513148 Z" id="Triangle-1"></path>
                    <path d="M93.8834014,0.249285823 L94.7585599,0.249285823 L47.5,22.797971 L0.241440097,0.249285823 L1.11659861,0.249285823 L47.5,17.3218617 L93.8834014,0.249285823 Z" id="Triangle-1"></path>
                    <path d="M8.378,50.881 C8.68133485,51.1670014 9.02799805,51.3988324 9.418,51.5765 C9.80800195,51.7541676 10.1979981,51.843 10.588,51.843 C11.0733358,51.843 11.4416654,51.7433343 11.693,51.544 C11.9443346,51.3446657 12.07,51.080335 12.07,50.751 C12.07,50.5776658 12.0375003,50.4303339 11.9725,50.309 C11.9074997,50.1876661 11.8165006,50.0815005 11.6995,49.9905 C11.5824994,49.8994995 11.4438341,49.8150004 11.2835,49.737 C11.1231659,49.6589996 10.9476676,49.5810004 10.757,49.503 L9.587,48.996 C9.37899896,48.9093329 9.17316769,48.8010006 8.9695,48.671 C8.76583232,48.5409993 8.58166749,48.3850009 8.417,48.203 C8.25233251,48.0209991 8.12016717,47.8086679 8.0205,47.566 C7.92083284,47.3233321 7.871,47.0460016 7.871,46.734 C7.871,46.3959983 7.94249929,46.0818348 8.0855,45.7915 C8.22850072,45.5011652 8.42566541,45.2476677 8.677,45.031 C8.92833459,44.8143322 9.22949825,44.6453339 9.5805,44.524 C9.93150176,44.4026661 10.3149979,44.342 10.731,44.342 C11.2250025,44.342 11.7016644,44.439499 12.161,44.6345 C12.6203356,44.829501 13.014665,45.091665 13.344,45.421 L12.577,46.383 C12.2996653,46.1576655 12.0136681,45.9800006 11.719,45.85 C11.4243319,45.7199993 11.0950018,45.655 10.731,45.655 C10.3236646,45.655 9.99866788,45.7438324 9.756,45.9215 C9.51333212,46.0991676 9.392,46.3439984 9.392,46.656 C9.392,46.8206675 9.42883297,46.9614994 9.5025,47.0785 C9.57616704,47.1955006 9.67583271,47.2994995 9.8015,47.3905 C9.9271673,47.4815005 10.0723325,47.563833 10.237,47.6375 C10.4016675,47.711167 10.5706658,47.7826663 10.744,47.852 L11.901,48.333 C12.1523346,48.4370005 12.381999,48.5583326 12.59,48.697 C12.798001,48.8356674 12.9778326,48.9959991 13.1295,49.178 C13.2811674,49.3600009 13.4003329,49.5701655 13.487,49.8085 C13.5736671,50.0468345 13.617,50.3219984 13.617,50.634 C13.617,50.9806684 13.5476674,51.3056651 13.409,51.609 C13.2703326,51.9123348 13.0688347,52.1788322 12.8045,52.4085 C12.5401653,52.6381678 12.2195019,52.820166 11.8425,52.9545 C11.4654981,53.088834 11.0386691,53.156 10.562,53.156 C9.98999714,53.156 9.43750267,53.0476677 8.9045,52.831 C8.37149734,52.6143322 7.90133537,52.3066687 7.494,51.908 L8.378,50.881 Z M14.722,48.775 C14.722,48.0816632 14.8238323,47.4598361 15.0275,46.9095 C15.2311677,46.3591639 15.5106649,45.8933352 15.866,45.512 C16.2213351,45.1306648 16.637331,44.8403343 17.114,44.641 C17.5906691,44.4416657 18.1019973,44.342 18.648,44.342 C19.1680026,44.342 19.6338313,44.4503322 20.0455,44.667 C20.4571687,44.8836677 20.797332,45.1349986 21.066,45.421 L20.221,46.357 C20.0043323,46.1403322 19.7725012,45.9691673 19.5255,45.8435 C19.2784988,45.7178327 18.990335,45.655 18.661,45.655 C18.3056649,45.655 17.9828348,45.7264993 17.6925,45.8695 C17.4021652,46.0125007 17.1508344,46.2161653 16.9385,46.4805 C16.7261656,46.7448347 16.5615006,47.0676648 16.4445,47.449 C16.3274994,47.8303352 16.269,48.2593309 16.269,48.736 C16.269,49.7066715 16.4791646,50.4671639 16.8995,51.0175 C17.3198354,51.5678361 17.8896631,51.843 18.609,51.843 C18.9903352,51.843 19.3218319,51.7693341 19.6035,51.622 C19.8851681,51.4746659 20.1473321,51.266668 20.39,50.998 L21.235,51.921 C20.8883316,52.3196687 20.4940022,52.6251656 20.052,52.8375 C19.6099978,53.0498344 19.120336,53.156 18.583,53.156 C18.0369973,53.156 17.5300023,53.0606676 17.062,52.87 C16.5939977,52.6793324 16.1866684,52.3976685 15.84,52.025 C15.4933316,51.6523315 15.2203343,51.1930027 15.021,50.647 C14.8216657,50.1009973 14.722,49.4770035 14.722,48.775 Z M27.293,53 L25.46,49.672 L24.16,49.672 L24.16,53 L22.652,53 L22.652,44.498 L25.525,44.498 C25.9670022,44.498 26.3786648,44.5413329 26.76,44.628 C27.1413352,44.7146671 27.4706653,44.855499 27.748,45.0505 C28.0253347,45.245501 28.2441659,45.5033317 28.4045,45.824 C28.5648341,46.1446683 28.645,46.5433309 28.645,47.02 C28.645,47.6700032 28.4911682,48.1943313 28.1835,48.593 C27.8758318,48.9916687 27.4663359,49.2776658 26.955,49.451 L28.983,53 L27.293,53 Z M24.16,48.476 L25.369,48.476 C25.9496696,48.476 26.3938318,48.3546679 26.7015,48.112 C27.0091682,47.8693321 27.163,47.5053358 27.163,47.02 C27.163,46.5259975 27.0091682,46.1836676 26.7015,45.993 C26.3938318,45.8023324 25.9496696,45.707 25.369,45.707 L24.16,45.707 L24.16,48.476 Z M33.741,53.156 C33.1863306,53.156 32.6793356,53.0541677 32.22,52.8505 C31.7606644,52.6468323 31.366335,52.3521686 31.037,51.9665 C30.707665,51.5808314 30.4520009,51.1150027 30.27,50.569 C30.0879991,50.0229973 29.997,49.4033368 29.997,48.71 C29.997,48.0253299 30.0879991,47.4121694 30.27,46.8705 C30.4520009,46.3288306 30.707665,45.8716685 31.037,45.499 C31.366335,45.1263315 31.7606644,44.8403343 32.22,44.641 C32.6793356,44.4416657 33.1863306,44.342 33.741,44.342 C34.2956694,44.342 34.8026644,44.4416657 35.262,44.641 C35.7213356,44.8403343 36.1178317,45.1263315 36.4515,45.499 C36.7851683,45.8716685 37.0429991,46.3288306 37.225,46.8705 C37.4070009,47.4121694 37.498,48.0253299 37.498,48.71 C37.498,49.4033368 37.4070009,50.0229973 37.225,50.569 C37.0429991,51.1150027 36.7851683,51.5808314 36.4515,51.9665 C36.1178317,52.3521686 35.7213356,52.6468323 35.262,52.8505 C34.8026644,53.0541677 34.2956694,53.156 33.741,53.156 Z M33.741,51.843 C34.0790017,51.843 34.382332,51.7693341 34.651,51.622 C34.919668,51.4746659 35.1493324,51.2645014 35.34,50.9915 C35.5306676,50.7184986 35.6779995,50.3891686 35.782,50.0035 C35.8860005,49.6178314 35.938,49.186669 35.938,48.71 C35.938,47.7566619 35.7408353,47.0091694 35.3465,46.4675 C34.9521647,45.9258306 34.4170034,45.655 33.741,45.655 C33.0649966,45.655 32.5298353,45.9258306 32.1355,46.4675 C31.7411647,47.0091694 31.544,47.7566619 31.544,48.71 C31.544,49.186669 31.5959995,49.6178314 31.7,50.0035 C31.8040005,50.3891686 31.9513324,50.7184986 32.142,50.9915 C32.3326676,51.2645014 32.562332,51.4746659 32.831,51.622 C33.099668,51.7693341 33.4029983,51.843 33.741,51.843 Z M39.201,44.498 L40.709,44.498 L40.709,51.726 L44.245,51.726 L44.245,53 L39.201,53 L39.201,44.498 Z M45.727,44.498 L47.235,44.498 L47.235,51.726 L50.771,51.726 L50.771,53 L45.727,53 L45.727,44.498 Z M54.918,44.498 L57.193,44.498 C58.4930065,44.498 59.5069964,44.8489965 60.235,45.551 C60.9630036,46.2530035 61.327,47.305993 61.327,48.71 C61.327,49.4120035 61.2338343,50.031664 61.0475,50.569 C60.8611657,51.106336 60.5925018,51.5548315 60.2415,51.9145 C59.8904982,52.2741685 59.4658358,52.5449991 58.9675,52.727 C58.4691642,52.9090009 57.9036698,53 57.271,53 L54.918,53 L54.918,44.498 Z M57.089,51.778 C57.955671,51.778 58.620831,51.5288358 59.0845,51.0305 C59.548169,50.5321642 59.78,49.7586719 59.78,48.71 C59.78,47.6699948 59.5460023,46.911669 59.078,46.435 C58.6099977,45.9583309 57.9470043,45.72 57.089,45.72 L56.426,45.72 L56.426,51.778 L57.089,51.778 Z M66.345,53.156 C65.7903306,53.156 65.2833356,53.0541677 64.824,52.8505 C64.3646644,52.6468323 63.970335,52.3521686 63.641,51.9665 C63.311665,51.5808314 63.0560009,51.1150027 62.874,50.569 C62.6919991,50.0229973 62.601,49.4033368 62.601,48.71 C62.601,48.0253299 62.6919991,47.4121694 62.874,46.8705 C63.0560009,46.3288306 63.311665,45.8716685 63.641,45.499 C63.970335,45.1263315 64.3646644,44.8403343 64.824,44.641 C65.2833356,44.4416657 65.7903306,44.342 66.345,44.342 C66.8996694,44.342 67.4066644,44.4416657 67.866,44.641 C68.3253356,44.8403343 68.7218317,45.1263315 69.0555,45.499 C69.3891683,45.8716685 69.6469991,46.3288306 69.829,46.8705 C70.0110009,47.4121694 70.102,48.0253299 70.102,48.71 C70.102,49.4033368 70.0110009,50.0229973 69.829,50.569 C69.6469991,51.1150027 69.3891683,51.5808314 69.0555,51.9665 C68.7218317,52.3521686 68.3253356,52.6468323 67.866,52.8505 C67.4066644,53.0541677 66.8996694,53.156 66.345,53.156 Z M66.345,51.843 C66.6830017,51.843 66.986332,51.7693341 67.255,51.622 C67.523668,51.4746659 67.7533324,51.2645014 67.944,50.9915 C68.1346676,50.7184986 68.2819995,50.3891686 68.386,50.0035 C68.4900005,49.6178314 68.542,49.186669 68.542,48.71 C68.542,47.7566619 68.3448353,47.0091694 67.9505,46.4675 C67.5561647,45.9258306 67.0210034,45.655 66.345,45.655 C65.6689966,45.655 65.1338353,45.9258306 64.7395,46.4675 C64.3451647,47.0091694 64.148,47.7566619 64.148,48.71 C64.148,49.186669 64.1999995,49.6178314 64.304,50.0035 C64.4080005,50.3891686 64.5553324,50.7184986 64.746,50.9915 C64.9366676,51.2645014 65.166332,51.4746659 65.435,51.622 C65.703668,51.7693341 66.0069983,51.843 66.345,51.843 Z M70.908,44.498 L72.455,44.498 L73.196,48.788 C73.2653337,49.2473356 73.3346663,49.7023311 73.404,50.153 C73.4733337,50.6036689 73.5426663,51.0543311 73.612,51.505 L73.664,51.505 C73.7593338,51.0543311 73.8524995,50.6015023 73.9435,50.1465 C74.0345005,49.6914977 74.1276662,49.2386689 74.223,48.788 L75.263,44.498 L76.576,44.498 L77.616,48.788 C77.7113338,49.2300022 77.8066662,49.6784977 77.902,50.1335 C77.9973338,50.5885023 78.0926662,51.0456644 78.188,51.505 L78.24,51.505 C78.3093337,51.0456644 78.3764997,50.5906689 78.4415,50.14 C78.5065003,49.6893311 78.5736663,49.2386689 78.643,48.788 L79.384,44.498 L80.827,44.498 L79.202,53 L77.33,53 L76.277,48.528 C76.2076663,48.198665 76.1405003,47.8715016 76.0755,47.5465 C76.0104997,47.2214984 75.9520003,46.894335 75.9,46.565 L75.848,46.565 C75.787333,46.894335 75.7245003,47.2214984 75.6595,47.5465 C75.5944997,47.8715016 75.5273337,48.198665 75.458,48.528 L74.431,53 L72.598,53 L70.908,44.498 Z M82.153,44.498 L83.7,44.498 L86.352,49.282 L87.223,51.089 L87.275,51.089 C87.2403332,50.6469978 87.1991669,50.1725025 87.1515,49.6655 C87.1038331,49.1584975 87.08,48.666669 87.08,48.19 L87.08,44.498 L88.523,44.498 L88.523,53 L86.976,53 L84.324,48.216 L83.453,46.409 L83.401,46.409 C83.4356668,46.8596689 83.4768331,47.3319975 83.5245,47.826 C83.5721669,48.3200025 83.596,48.8053309 83.596,49.282 L83.596,53 L82.153,53 L82.153,44.498 Z" id="SCROLL-DOWN"></path>
                </g>
            </g>
        </g>
    </g>
</svg>