<?xml version="1.0" encoding="UTF-8" standalone="no"?>
<svg width="100px" height="105px" viewBox="0 0 100 105" version="1.1" xmlns="http://www.w3.org/2000/svg" xmlns:xlink="http://www.w3.org/1999/xlink" xmlns:sketch="http://www.bohemiancoding.com/sketch/ns">
    <!-- Generator: Sketch 3.0.4 (8054) - http://www.bohemiancoding.com/sketch -->
    <title>core teams@1x</title>
    <desc>Created with Sketch.</desc>
    <defs></defs>
    <g id="Agile-info-Final-Page" stroke="none" stroke-width="1" fill="none" fill-rule="evenodd" sketch:type="MSPage">
        <g id="Agile_site-layout" sketch:type="MSArtboardGroup" transform="translate(-776.000000, -1433.000000)" fill="#0099CC">
            <g id="introducttion-section" sketch:type="MSLayerGroup" transform="translate(-2.000000, 1021.000000)">
                <g id="core-teams" transform="translate(778.000000, 412.000000)" sketch:type="MSShapeGroup">
                    <path d="M27.4009785,20.0658665 C27.3023655,19.5134651 27.2029754,18.9612733 27.1053913,18.4090024 C26.9880208,17.7449293 26.5987839,17.2114472 25.9937556,16.9039722 C25.4931424,16.6494614 24.9983302,16.3666492 24.4731601,16.1826898 C22.9138923,15.6368763 21.3401224,15.1367495 19.7746671,14.6097362 C19.6101164,14.5543463 19.4285499,14.4730807 19.3154333,14.3451178 C18.5951615,13.531047 17.8884249,12.7038364 17.1869091,11.871774 C17.0933221,11.760792 17.0041824,11.6006867 16.9995417,11.4601902 C16.9755649,10.7348648 16.9175564,10.0004424 17.3568739,9.35314803 C17.4754046,9.17828556 17.5351533,8.95874724 17.617332,8.75780702 C17.9760177,7.88066453 18.094355,6.95439882 18.0315125,6.01640824 C17.9889729,5.38225382 17.7828495,4.75921783 17.7480444,4.12546773 C17.6882957,3.03889458 17.2574861,2.16296501 16.5275461,1.42732972 C15.8039871,0.697961177 14.8493609,0.414744623 13.957384,0.0130663266 C13.8986021,-0.0134157352 13.8193238,0.00821465113 13.7497136,0.0102361826 C13.0377563,0.0310579564 12.3256056,0.078361792 11.614035,0.0686584411 C9.57871102,0.0411656136 7.49465992,2.2009698 7.759952,4.35673093 C7.96626881,6.03399556 8.19308194,7.7086322 8.39669168,9.38630114 C8.55273448,10.6734102 9.02144295,11.8262896 9.70787655,12.894669 C10.2378806,13.7196559 10.2214449,14.4797518 9.66282331,15.283917 C9.00732755,16.2273657 8.21473844,17.0167737 7.26455964,17.6339473 C6.31670118,18.2495036 5.37522365,18.8761783 4.43161914,19.4992143 C3.84457338,19.8867419 3.48859472,20.4349812 3.37180432,21.1544442 C3.25984797,21.8441908 3.10032467,22.5280749 3.02800744,23.2220666 C2.74569953,25.932536 2.34756804,28.6409838 2.25804163,31.3595393 C2.12887609,35.2815124 2.22845731,39.2115717 2.23947892,43.1381943 C2.240059,43.3947267 2.28801267,43.6607602 2.36245688,43.9061741 C2.7569145,45.2050081 3.4599772,46.284708 4.47531886,47.1485084 C4.61163877,47.2645443 4.72417521,47.4986376 4.72958933,47.6817884 C4.78392394,49.4902504 4.78895134,51.300734 4.85875487,53.1083874 C4.90090769,54.1990036 4.96549046,55.2975038 5.13835571,56.3717456 C5.52430542,58.7719098 6.03284638,61.1510502 6.40274708,63.5536403 C6.91264156,66.8649088 7.27171402,70.202255 7.82182771,73.5056396 C8.48815171,77.5068567 8.27236019,81.4706756 7.60951669,85.4292384 C7.33803704,87.0503045 6.92714368,88.645495 6.63091374,90.262518 C6.52475824,90.842091 6.28228281,91.3100756 5.9964944,91.8021163 C5.3603348,92.8969777 4.47531886,93.6033008 3.35188808,94.0925114 C2.33848004,94.5338117 1.37573274,95.1063094 0.407958036,95.6541445 C0.225618067,95.7574447 0.0167875614,96.0101361 0.00499250503,96.2060225 C-0.0350333419,96.8725215 0.157748153,97.4266232 0.869318764,97.6615252 C1.75394799,97.9534343 2.63548343,97.8238541 3.52533342,97.7504726 C4.96587718,97.6318087 6.34783239,97.3635514 7.46739593,96.2949699 C7.61937814,96.149824 7.80655214,96.0198395 7.99972036,95.9537354 C8.2516705,95.867416 8.53223815,95.7885763 8.78960241,95.8162713 C10.176585,95.9660668 11.5440381,96.046928 12.816744,95.266819 C13.0770087,95.107118 13.2446532,94.9409482 13.2912533,94.6098213 C13.380393,93.9758691 13.4948631,93.3439383 13.6365971,92.720498 C13.6955724,92.4613377 13.7961204,92.1619489 13.9751732,91.9947682 C14.2348578,91.7521845 14.3232241,91.4891832 14.3348258,91.1544176 C14.3997953,89.272574 14.4705656,87.3911347 14.537082,85.5092911 C14.6494251,82.3296243 14.7140078,79.1469252 14.8845528,75.970695 C15.0502636,72.8828057 15.3236769,69.8013854 15.5522303,66.7171349 C15.5545506,66.687014 15.5912893,66.6599255 15.6338289,66.6008968 C15.6951245,66.7684818 15.7484923,66.9010942 15.7925787,67.0371433 C16.5656383,69.4251784 17.348366,71.809979 18.1055699,74.2034722 C18.5648037,75.6555383 18.9538472,77.1203399 19.1928421,78.642351 C19.922202,83.2872237 20.1911679,87.9773788 20.5802114,92.6564155 C20.6765055,93.8157638 20.7853681,94.9741013 20.8913302,96.1668048 C21.259684,96.2035967 21.5363844,96.2387713 21.8144384,96.2565608 C22.0437652,96.271318 22.1642295,96.3649149 22.1887864,96.6234688 C22.2816,97.6006771 22.1802785,98.5231019 21.5267164,99.2910817 C20.6273917,100.34814 19.7172387,101.395294 18.8144335,102.449118 C18.6659318,102.622363 18.5064085,102.792981 18.3948389,102.991293 C18.0821732,103.546405 18.2627729,104.428197 18.7508175,104.535541 C19.7017698,104.744769 20.6809528,105.055074 21.6280378,104.991598 C23.6362912,104.857368 25.5528912,104.340463 26.8012335,102.437797 C26.8874728,102.306398 26.9930482,102.184702 27.1067448,102.078571 C27.1970447,101.994274 27.3084209,101.893803 27.4188304,101.88127 C28.018638,101.812942 28.452348,101.424808 28.8319168,101.010394 C29.0643374,100.756692 29.2602127,100.365121 29.2830294,100.021865 C29.3572802,98.9114381 29.2379761,97.8107142 28.9133221,96.7386961 C28.8226355,96.4393073 28.7725548,96.1124256 28.7746818,95.798684 C28.8125807,90.4264642 28.8669153,85.0542444 28.9026872,79.6820246 C28.9088747,78.7646536 28.9492873,77.8276738 28.7969184,76.9327418 C28.3210555,74.1363574 27.7450314,71.358571 27.2368772,68.5678469 C26.7778368,66.0476036 26.4110299,63.5077515 25.8980416,61.0002439 C25.6176673,59.6300499 25.5401293,58.2883595 25.7769972,56.9248366 C25.8187633,56.6848808 25.987568,56.4154106 26.1760955,56.2726905 C26.3541816,56.1376522 26.4040688,56.0483005 26.3816389,55.8291665 C26.2750967,54.7848434 26.1896308,53.7382966 26.0956571,52.6927605 C25.9388409,50.9506047 25.7963334,49.2068317 25.6192142,47.4668996 C25.4687789,45.987745 25.2682629,44.5142508 25.1170542,43.0350962 C25.0963645,42.8325388 25.1893714,42.5822732 25.3024879,42.4047827 C25.9819908,41.3408778 26.6692937,40.2825 27.3562735,39.2238258 C30.100268,41.4260085 28.9428394,44.217046 28.4140839,46.5889181 C27.6095591,50.1970759 28.0105924,53.7317768 28.1493036,57.2741523 C28.3631646,62.7318884 29.0282759,68.1695244 29.2818188,73.6265296 C29.4616166,77.4970855 28.9759519,81.4169782 29.3387079,85.2582976 C29.7355272,89.461785 30.8139627,93.592181 31.4748599,97.7752028 C31.581966,98.4545875 31.1265018,99.272115 30.8150162,99.9694071 C30.4947514,100.686068 30.0322638,101.334024 29.632284,102.011947 L32.0904566,102.011947 C32.4247681,101.927526 32.7555679,101.791576 33.0940934,101.76636 C36.116241,101.541238 36.6419388,100.98282 36.6331596,97.4408095 C37.1816833,98.7462222 37.4464636,99.7073744 37.963031,100.487625 C38.3040147,101.002189 39.0140754,101.552567 39.5474988,101.540507 C40.0398357,101.529909 40.6557835,100.88305 40.97956,100.357523 C44.365166,94.8606825 44.3128421,88.4940547 44.9319504,82.3525484 C45.6655393,75.0773942 45.9598177,67.7554615 46.5420535,60.4620345 C46.8106966,57.0932511 47.5527136,53.7504151 47.6240006,50.3852863 C47.6745687,48.0076225 46.9504613,45.6135131 46.5870029,43.2245202 C46.3527742,41.6866768 46.1455853,40.1444479 45.9218916,38.5704242 C48.9503603,38.4739435 48.9872329,38.4282614 49.4160084,35.5462668 C49.5824618,34.42943 49.8036974,33.3217295 50,32.2096436 L50,31.4787295 C49.4247876,28.7378013 48.631149,26.0220897 48.335466,23.2490014 C48.0288967,20.3702959 47.1077843,19.245419 44.2556017,19.3429961 C43.9651862,19.3528634 43.6744195,19.3444579 43.3429174,19.3444579 C44.3792127,17.2986291 44.0638643,15.2509731 43.5318455,13.1711568 C43.1431031,11.6519517 42.8259988,10.108261 42.5615696,8.55945389 C42.008832,5.31967683 40.3091812,2.92045108 37.7091369,1.14579147 L35.9532993,1.14579147 C31.4983882,2.40186747 30.8381932,6.19567747 30.3567426,10.1415176 C30.2103057,11.3424096 30.0575478,12.5849637 29.6357957,13.6970496 C29.0114198,15.3430683 29.1964851,16.5161855 30.8216884,17.2767017 C31.1883073,17.4481011 31.5306956,17.6750499 31.8839701,17.8764168 C31.8032016,18.0569526 31.7227842,18.2378539 31.6420157,18.4183897 C30.7296825,18.7516865 29.8391217,19.2428608 28.9000997,19.3821 C28.2322251,19.4811162 27.7471731,19.7137084 27.4009785,20.0658665 Z M76.6919826,21.7244527 C76.5030083,20.6180785 76.3005868,19.5136988 76.1053913,18.4090024 C75.9880208,17.7449293 75.5987839,17.2114472 74.9937556,16.9039722 C74.4931424,16.6494614 73.9983302,16.3666492 73.4731601,16.1826898 C71.9138923,15.6368763 70.3401224,15.1367495 68.7746671,14.6097362 C68.6101164,14.5543463 68.4285499,14.4730807 68.3154333,14.3451178 C67.5951615,13.531047 66.8884249,12.7038364 66.1869091,11.871774 C66.0933221,11.760792 66.0041824,11.6006867 65.9995417,11.4601902 C65.9755649,10.7348648 65.9175564,10.0004424 66.3568739,9.35314803 C66.4754046,9.17828556 66.5351533,8.95874724 66.617332,8.75780702 C66.9760177,7.88066453 67.094355,6.95439882 67.0315125,6.01640824 C66.9889729,5.38225382 66.7828495,4.75921783 66.7480444,4.12546773 C66.6882957,3.03889458 66.2574861,2.16296501 65.5275461,1.42732972 C64.8039871,0.697961177 63.8493609,0.414744623 62.957384,0.0130663266 C62.8986021,-0.0134157352 62.8193238,0.00821465113 62.7497136,0.0102361826 C62.0377563,0.0310579564 61.3256056,0.078361792 60.614035,0.0686584411 C58.578711,0.0411656136 56.4946599,2.2009698 56.759952,4.35673093 C56.9662688,6.03399556 57.1930819,7.7086322 57.3966917,9.38630114 C57.5527345,10.6734102 58.0214429,11.8262896 58.7078766,12.894669 C59.2378806,13.7196559 59.2214449,14.4797518 58.6628233,15.283917 C58.0073276,16.2273657 57.2147384,17.0167737 56.2645596,17.6339473 C55.3167012,18.2495036 54.3752236,18.8761783 53.4316191,19.4992143 C52.8445734,19.8867419 52.4885947,20.4349812 52.3718043,21.1544442 C52.259848,21.8441908 52.1003247,22.5280749 52.0280074,23.2220666 C51.7456995,25.932536 51.347568,28.6409838 51.2580416,31.3595393 C51.1288761,35.2815124 51.2284573,39.2115717 51.2394789,43.1381943 C51.240059,43.3947267 51.2880127,43.6607602 51.3624569,43.9061741 C51.7569145,45.2050081 52.4599772,46.284708 53.4753189,47.1485084 C53.6116388,47.2645443 53.7241752,47.4986376 53.7295893,47.6817884 C53.7839239,49.4902504 53.7889513,51.300734 53.8587549,53.1083874 C53.9009077,54.1990036 53.9654905,55.2975038 54.1383557,56.3717456 C54.5243054,58.7719098 55.0328464,61.1510502 55.4027471,63.5536403 C55.9126416,66.8649088 56.271714,70.202255 56.8218277,73.5056396 C57.4881517,77.5068567 57.2723602,81.4706756 56.6095167,85.4292384 C56.338037,87.0503045 55.9271437,88.645495 55.6309137,90.262518 C55.5247582,90.842091 55.2822828,91.3100756 54.9964944,91.8021163 C54.3603348,92.8969777 53.4753189,93.6033008 52.3518881,94.0925114 C51.33848,94.5338117 50.3757327,95.1063094 49.407958,95.6541445 C49.2256181,95.7574447 49.0167876,96.0101361 49.0049925,96.2060225 C48.9649667,96.8725215 49.1577482,97.4266232 49.8693188,97.6615252 C50.753948,97.9534343 51.6354834,97.8238541 52.5253334,97.7504726 C53.9658772,97.6318087 55.3478324,97.3635514 56.4673959,96.2949699 C56.6193781,96.149824 56.8065521,96.0198395 56.9997204,95.9537354 C57.2516705,95.867416 57.5322382,95.7885763 57.7896024,95.8162713 C59.176585,95.9660668 60.5440381,96.046928 61.816744,95.266819 C62.0770087,95.107118 62.2446532,94.9409482 62.2912533,94.6098213 C62.380393,93.9758691 62.4948631,93.3439383 62.6365971,92.720498 C62.6955724,92.4613377 62.7961204,92.1619489 62.9751732,91.9947682 C63.2348578,91.7521845 63.3232241,91.4891832 63.3348258,91.1544176 C63.3997953,89.272574 63.4705656,87.3911347 63.537082,85.5092911 C63.6494251,82.3296243 63.7140078,79.1469252 63.8845528,75.970695 C64.0502636,72.8828057 64.3236769,69.8013854 64.5522303,66.7171349 C64.5545506,66.687014 64.5912893,66.6599255 64.6338289,66.6008968 C64.6951245,66.7684818 64.7484923,66.9010942 64.7925787,67.0371433 C65.5656383,69.4251784 66.348366,71.809979 67.1055699,74.2034722 C67.5648037,75.6555383 67.9538472,77.1203399 68.1928421,78.642351 C68.922202,83.2872237 69.1911679,87.9773788 69.5802114,92.6564155 C69.6765055,93.8157638 69.7853681,94.9741013 69.8913302,96.1668048 C70.259684,96.2035967 70.5363844,96.2387713 70.8144384,96.2565608 C71.0437652,96.271318 71.1642295,96.3649149 71.1887864,96.6234688 C71.2816,97.6006771 71.1802785,98.5231019 70.5267164,99.2910817 C69.6273917,100.34814 68.7172387,101.395294 67.8144335,102.449118 C67.6659318,102.622363 67.5064085,102.792981 67.3948389,102.991293 C67.0821732,103.546405 67.2627729,104.428197 67.7508175,104.535541 C68.7017698,104.744769 69.6809528,105.055074 70.6280378,104.991598 C72.6362912,104.857368 74.5528912,104.340463 75.8012335,102.437797 C75.8874728,102.306398 75.9930482,102.184702 76.1067448,102.078571 C76.1970447,101.994274 76.3084209,101.893803 76.4188304,101.88127 C77.018638,101.812942 77.452348,101.424808 77.8319168,101.010394 C78.0643374,100.756692 78.2602127,100.365121 78.2830294,100.021865 C78.3572802,98.9114381 78.2379761,97.8107142 77.9133221,96.7386961 C77.8226355,96.4393073 77.7725548,96.1124256 77.7746818,95.798684 C77.8125807,90.4264642 77.8669153,85.0542444 77.9026872,79.6820246 C77.9088747,78.7646536 77.9492873,77.8276738 77.7969184,76.9327418 C77.3210555,74.1363574 76.7450314,71.358571 76.2368772,68.5678469 C75.7778368,66.0476036 75.4110299,63.5077515 74.8980416,61.0002439 C74.6176673,59.6300499 74.5401293,58.2883595 74.7769972,56.9248366 C74.8187633,56.6848808 74.987568,56.4154106 75.1760955,56.2726905 C75.3541816,56.1376522 75.4040688,56.0483005 75.3816389,55.8291665 C75.2750967,54.7848434 75.1896308,53.7382966 75.0956571,52.6927605 C74.9388409,50.9506047 74.7963334,49.2068317 74.6192142,47.4668996 C74.4687789,45.987745 74.2682629,44.5142508 74.1170542,43.0350962 C74.0963645,42.8325388 74.1893714,42.5822732 74.3024879,42.4047827 C75.1151643,41.1323665 75.9389979,39.8678562 76.760092,38.6012894 C76.9026328,38.8134659 77.0649624,38.9978048 77.2545287,39.1438264 C80.1284837,41.3581308 78.9492632,44.1882305 78.4140839,46.5889181 C77.6095591,50.1970759 78.0105924,53.7317768 78.1493036,57.2741523 C78.3631646,62.7318884 79.0282759,68.1695244 79.2818188,73.6265296 C79.4616166,77.4970855 78.9759519,81.4169782 79.3387079,85.2582976 C79.7355272,89.461785 80.8139627,93.592181 81.4748599,97.7752028 C81.581966,98.4545875 81.1265018,99.272115 80.8150162,99.9694071 C80.4947514,100.686068 80.0322638,101.334024 79.632284,102.011947 L82.0904566,102.011947 C82.4247681,101.927526 82.7555679,101.791576 83.0940934,101.76636 C86.116241,101.541238 86.6419388,100.98282 86.6331596,97.4408095 C87.1816833,98.7462222 87.4464636,99.7073744 87.963031,100.487625 C88.3040147,101.002189 89.0140754,101.552567 89.5474988,101.540507 C90.0398357,101.529909 90.6557835,100.88305 90.97956,100.357523 C94.365166,94.8606825 94.3128421,88.4940547 94.9319504,82.3525484 C95.6655393,75.0773942 95.9598177,67.7554615 96.5420535,60.4620345 C96.8106966,57.0932511 97.5527136,53.7504151 97.6240006,50.3852863 C97.6745687,48.0076225 96.9504613,45.6135131 96.5870029,43.2245202 C96.3527742,41.6866768 96.1455853,40.1444479 95.9218916,38.5704242 C98.9503603,38.4739435 98.9872329,38.4282614 99.4160084,35.5462668 C99.5824618,34.42943 99.8036974,33.3217295 100,32.2096436 L100,31.4787295 C99.4247876,28.7378013 98.631149,26.0220897 98.335466,23.2490014 C98.0288967,20.3702959 97.1077843,19.245419 94.2556017,19.3429961 C93.9651862,19.3528634 93.6744195,19.3444579 93.3429174,19.3444579 C94.3792127,17.2986291 94.0638643,15.2509731 93.5318455,13.1711568 C93.1431031,11.6519517 92.8259988,10.108261 92.5615696,8.55945389 C92.008832,5.31967683 90.3091812,2.92045108 87.7091369,1.14579147 L85.9532993,1.14579147 C81.4983882,2.40186747 80.8381932,6.19567747 80.3567426,10.1415176 C80.2103057,11.3424096 80.0575478,12.5849637 79.6357957,13.6970496 C79.0114198,15.3430683 79.1964851,16.5161855 80.8216884,17.2767017 C81.1883073,17.4481011 81.5306956,17.6750499 81.8839701,17.8764168 C81.8032016,18.0569526 81.7227842,18.2378539 81.6420157,18.4183897 C80.7296825,18.7516865 79.8391217,19.2428608 78.9000997,19.3821 C77.467621,19.594473 76.8761821,20.4213365 76.6919826,21.7244527 Z M37.8411759,56.41277 C36.1632975,66.8209877 34.5823413,77.2518638 37.2835219,87.6677562 C39.3452264,77.3805047 40.0078795,66.9445122 37.8411759,56.41277 Z" id="Imported-Layers-4"></path>
                </g>
            </g>
        </g>
    </g>
</svg>