<?xml version="1.0" encoding="UTF-8" standalone="no"?>
<svg width="35px" height="14px" viewBox="0 0 35 14" version="1.1" xmlns="http://www.w3.org/2000/svg" xmlns:xlink="http://www.w3.org/1999/xlink" xmlns:sketch="http://www.bohemiancoding.com/sketch/ns">
    <!-- Generator: Sketch 3.0.4 (8054) - http://www.bohemiancoding.com/sketch -->
    <title>link_icon</title>
    <desc>Created with Sketch.</desc>
    <defs></defs>
    <g id="Agile-info-Final-Page" stroke="none" stroke-width="1" fill="none" fill-rule="evenodd" sketch:type="MSPage">
        <g id="Agile_site-layout" sketch:type="MSArtboardGroup" transform="translate(-883.000000, -6053.000000)" fill="#FFFFFF">
            <g id="getting-started" sketch:type="MSLayerGroup" transform="translate(329.000000, 5223.000000)">
                <g id="link_icon" transform="translate(571.500000, 836.500000) rotate(45.000000) translate(-571.500000, -836.500000) translate(558.000000, 823.000000)" sketch:type="MSShapeGroup">
                    <path d="M10.1920345,13.1180897 C10.1143862,13.0685586 10.098931,13.0536621 10.0804966,13.0478897 C9.33324828,12.8088 8.57613103,12.7065724 7.78531034,12.7674621 C6.68389655,12.8521862 5.66962759,13.1765586 4.80506897,13.850069 C4.17494483,14.3410966 3.6099931,14.919269 3.03815172,15.480869 C2.41231034,16.0959103 1.76188966,16.6960552 1.21108966,17.3747793 C0.167958621,18.6599793 -0.221958621,20.1552207 -0.0184344828,21.8059448 C0.116937931,22.9032621 0.520262069,23.8901586 1.22635862,24.7293931 C2.63110345,26.3987379 4.43377241,27.1024138 6.60568966,26.8333448 C7.87077931,26.6765586 8.95953103,26.1389793 9.87026897,25.2580345 C10.7420897,24.4147034 11.5967793,23.5531241 12.4442069,22.6850276 C13.0637172,22.0502483 13.5080069,21.3033724 13.7847103,20.456131 C14.0630897,19.6044207 14.1554483,18.7346483 14.0383241,17.8494207 C13.986931,17.4604345 13.8742759,17.0794552 13.7791241,16.649131 C13.6770828,16.7357172 13.6245724,16.7742621 13.5789517,16.8198828 C12.7687655,17.6302552 11.960069,18.4426759 11.1489517,19.2523034 C10.9074414,19.4936276 10.6765448,19.736069 10.518269,20.0488966 C10.4164138,20.2501862 10.2588828,20.4311793 10.0985586,20.5937379 C9.33194483,21.3715241 8.55844138,22.1422345 7.78251724,22.9108966 C6.94477241,23.7410069 5.7860069,23.9868 4.75311724,23.5633655 C2.98973793,22.8406966 2.49889655,20.5754897 3.80457931,19.1778207 C4.42855862,18.5098966 5.08270345,17.8689724 5.74001379,17.2334483 C6.10106897,16.8844966 6.49471034,16.5686897 6.87922759,16.2445034 C7.04774483,16.1026138 7.24642759,15.9940552 7.40302759,15.8413655 C8.04748966,15.2129172 8.67873103,14.5708759 9.32002759,13.9388897 C9.59915172,13.6638621 9.89037931,13.4013103 10.1920345,13.1180897" id="Fill-1"></path>
                    <path d="M12.9009724,10.3395103 C13.0043172,10.2423103 13.0694897,10.1842138 13.1309379,10.1227655 C13.7623655,9.49133793 14.3943517,8.86046897 15.0239172,8.22717931 C15.4723034,7.77637241 15.9646345,7.36355172 16.2538138,6.77569655 C16.3050207,6.6716069 16.3929103,6.58204138 16.4765172,6.49824828 C17.3434966,5.62977931 18.1857103,4.73393793 19.0903034,3.90643448 C19.838669,3.22212414 20.7600207,3.06124138 21.7292276,3.36531724 C23.6462276,3.96657931 24.1785931,6.31166897 22.9176,7.7436 C22.2952966,8.45025517 21.5979517,9.0909931 20.9341241,9.76096552 C20.5583586,10.140269 20.1997241,10.5381931 19.7152138,10.7914345 C19.5800276,10.8620069 19.449869,10.9551103 19.3414966,11.0623655 C18.4529172,11.9425655 17.5701103,12.8285379 16.6858138,13.7132069 C16.6306966,13.7683241 16.5793034,13.8273517 16.5290276,13.8815379 C16.5545379,13.9143103 16.5614276,13.9293931 16.5731586,13.936469 C16.5917793,13.9476414 16.6131931,13.954531 16.6340483,13.9610483 C17.5624759,14.2574897 18.5043103,14.3105586 19.4651379,14.1466966 C20.6715724,13.9411241 21.708931,13.4098759 22.5774,12.5548138 C23.4155172,11.729731 24.255869,10.9059517 25.0681034,10.055731 C26.4840207,8.57315172 27.0147103,6.79413103 26.6236759,4.79315172 C26.1019241,2.12201379 23.9331724,0.293834483 21.2866138,0.0970137931 C19.8220966,-0.0117310345 18.468931,0.378931034 17.3137034,1.29655862 C16.7167241,1.77082759 16.1877103,2.33317241 15.644731,2.87261379 C15.0430966,3.46996552 14.4114828,4.04664828 13.8796759,4.70265517 C12.7413931,6.10702759 12.3773586,7.73447586 12.6881379,9.51144828 C12.7345034,9.7766069 12.8214621,10.0348759 12.9009724,10.3395103" id="Fill-2"></path>
                    <path d="M19.1487724,9.23083448 C19.1398345,8.56495862 18.8366897,8.06815862 18.2289103,7.80784138 C17.631931,7.55217931 17.0424,7.61995862 16.5532345,8.07523448 C16.0588552,8.53572414 15.5909172,9.02451724 15.1125517,9.50195172 C12.7415793,11.8680828 10.3694897,14.2327241 8.00186897,16.6022069 C7.5734069,17.0310414 7.40377241,17.5550276 7.56465517,18.1488414 C7.89051724,19.3511793 9.32598621,19.7230345 10.2138207,18.8368759 C13.0383931,16.0178897 15.8598,13.1957379 18.6804621,10.3730276 C18.992731,10.0605724 19.163669,9.68313103 19.1487724,9.23083448" id="Fill-3"></path>
                    <path d="M10.1920345,13.1180897 C9.89037931,13.4013103 9.59915172,13.6638621 9.32002759,13.9388897 C8.67873103,14.5708759 8.04748966,15.2129172 7.40302759,15.8413655 C7.24642759,15.9940552 7.04774483,16.1026138 6.87922759,16.2445034 C6.49471034,16.5686897 6.10106897,16.8844966 5.74001379,17.2334483 C5.08270345,17.8689724 4.42855862,18.5098966 3.80457931,19.1778207 C2.49889655,20.5754897 2.98973793,22.8406966 4.75311724,23.5633655 C5.7860069,23.9868 6.94477241,23.7410069 7.78251724,22.9108966 C8.55844138,22.1422345 9.33194483,21.3715241 10.0985586,20.5937379 C10.2588828,20.4311793 10.4164138,20.2501862 10.518269,20.0488966 C10.6765448,19.736069 10.9074414,19.4936276 11.1489517,19.2523034 C11.960069,18.4426759 12.7687655,17.6302552 13.5789517,16.8198828 C13.6245724,16.7742621 13.6770828,16.7357172 13.7791241,16.649131 C13.8742759,17.0794552 13.986931,17.4604345 14.0383241,17.8494207 C14.1554483,18.7346483 14.0630897,19.6044207 13.7847103,20.456131 C13.5080069,21.3033724 13.0637172,22.0502483 12.4442069,22.6850276 C11.5967793,23.5531241 10.7420897,24.4147034 9.87026897,25.2580345 C8.95953103,26.1389793 7.87077931,26.6765586 6.60568966,26.8333448 C4.43377241,27.1024138 2.63110345,26.3987379 1.22635862,24.7293931 C0.520262069,23.8901586 0.116937931,22.9032621 -0.0184344828,21.8059448 C-0.221958621,20.1552207 0.167958621,18.6599793 1.21108966,17.3747793 C1.76188966,16.6960552 2.41231034,16.0959103 3.03815172,15.480869 C3.6099931,14.919269 4.17494483,14.3410966 4.80506897,13.850069 C5.66962759,13.1765586 6.68389655,12.8521862 7.78531034,12.7674621 C8.57613103,12.7065724 9.33324828,12.8088 10.0804966,13.0478897 C10.098931,13.0536621 10.1143862,13.0685586 10.1920345,13.1180897" id="Fill-4"></path>
                    <path d="M12.9009724,10.3395103 C12.8214621,10.0348759 12.7345034,9.7766069 12.6881379,9.51144828 C12.3773586,7.73447586 12.7413931,6.10702759 13.8796759,4.70265517 C14.4114828,4.04664828 15.0430966,3.46996552 15.644731,2.87261379 C16.1877103,2.33317241 16.7167241,1.77082759 17.3137034,1.29655862 C18.468931,0.378931034 19.8220966,-0.0117310345 21.2866138,0.0970137931 C23.9331724,0.293834483 26.1019241,2.12201379 26.6236759,4.79315172 C27.0147103,6.79413103 26.4840207,8.57315172 25.0681034,10.055731 C24.255869,10.9059517 23.4155172,11.729731 22.5774,12.5548138 C21.708931,13.4098759 20.6715724,13.9411241 19.4651379,14.1466966 C18.5043103,14.3105586 17.5624759,14.2574897 16.6340483,13.9610483 C16.6131931,13.954531 16.5917793,13.9476414 16.5731586,13.936469 C16.5614276,13.9293931 16.5545379,13.9143103 16.5290276,13.8815379 C16.5793034,13.8273517 16.6306966,13.7683241 16.6858138,13.7132069 C17.5701103,12.8285379 18.4529172,11.9425655 19.3414966,11.0623655 C19.449869,10.9551103 19.5800276,10.8620069 19.7152138,10.7914345 C20.1997241,10.5381931 20.5583586,10.140269 20.9341241,9.76096552 C21.5979517,9.0909931 22.2952966,8.45025517 22.9176,7.7436 C24.1785931,6.31166897 23.6462276,3.96657931 21.7292276,3.36531724 C20.7600207,3.06124138 19.838669,3.22212414 19.0903034,3.90643448 C18.1857103,4.73393793 17.3434966,5.62977931 16.4765172,6.49824828 C16.3929103,6.58204138 16.3050207,6.6716069 16.2538138,6.77569655 C15.9646345,7.36355172 15.4723034,7.77637241 15.0239172,8.22717931 C14.3943517,8.86046897 13.7623655,9.49133793 13.1309379,10.1227655 C13.0694897,10.1842138 13.0043172,10.2423103 12.9009724,10.3395103" id="Fill-5"></path>
                    <path d="M18.6804621,10.3730276 C15.8598,13.1957379 13.0383931,16.0178897 10.2138207,18.8368759 C9.32598621,19.7230345 7.89051724,19.3511793 7.56465517,18.1488414 C7.40377241,17.5550276 7.5734069,17.0310414 8.00186897,16.6022069 C10.3694897,14.2327241 12.7415793,11.8680828 15.1125517,9.50195172 C15.5909172,9.02451724 16.0588552,8.53572414 16.5532345,8.07523448 C17.0424,7.61995862 17.631931,7.55217931 18.2289103,7.80784138 C18.8366897,8.06815862 19.1398345,8.56495862 19.1487724,9.23083448 C19.163669,9.68313103 18.992731,10.0605724 18.6804621,10.3730276 Z" id="Fill-6"></path>
                </g>
            </g>
        </g>
    </g>
</svg>