<?xml version="1.0" encoding="UTF-8" standalone="no"?>
<svg width="76px" height="76px" viewBox="0 0 76 76" version="1.1" xmlns="http://www.w3.org/2000/svg" xmlns:xlink="http://www.w3.org/1999/xlink" xmlns:sketch="http://www.bohemiancoding.com/sketch/ns">
    <!-- Generator: Sketch 3.0.4 (8054) - http://www.bohemiancoding.com/sketch -->
    <title>play button@1x</title>
    <desc>Created with Sketch.</desc>
    <defs></defs>
    <g id="Agile-info-Final-Page" stroke="none" stroke-width="1" fill="none" fill-rule="evenodd" sketch:type="MSPage">
        <g id="Agile_site-layout" sketch:type="MSArtboardGroup" transform="translate(-682.000000, -1206.000000)" fill="#FFFFFF">
            <g id="introducttion-section" sketch:type="MSLayerGroup" transform="translate(-2.000000, 1021.000000)">
                <g id="play-button" transform="translate(685.000000, 186.000000)" sketch:type="MSShapeGroup">
                    <g>
                        <path d="M37.0002336,74.1238318 C16.5343458,74.1238318 -0.115654206,57.4738318 -0.115654206,37.0079439 C-0.115654206,16.5420561 16.5343458,-0.10864486 37.0002336,-0.10864486 C57.4661215,-0.10864486 74.1168224,16.5420561 74.1168224,37.0079439 C74.1168224,57.4738318 57.4661215,74.1238318 37.0002336,74.1238318 L37.0002336,74.1238318 Z M37.0002336,3.39602804 C18.4668224,3.39602804 3.38901869,18.4738318 3.38901869,37.0079439 C3.38901869,55.5413551 18.4668224,70.6191589 37.0002336,70.6191589 C55.5343458,70.6191589 70.6121495,55.5413551 70.6121495,37.0079439 C70.6121495,18.4738318 55.5343458,3.39602804 37.0002336,3.39602804 L37.0002336,3.39602804 Z" id="Fill-1"></path>
                        <path d="M63.5754673,37.0079439 L21.728972,61.1992991 L21.728972,12.8158879 L63.5754673,37.0079439" id="Fill-2"></path>
                    </g>
                </g>
            </g>
        </g>
    </g>
</svg>