<?xml version="1.0" encoding="UTF-8" standalone="no"?>
<svg width="101px" height="101px" viewBox="0 0 101 101" version="1.1" xmlns="http://www.w3.org/2000/svg" xmlns:xlink="http://www.w3.org/1999/xlink" xmlns:sketch="http://www.bohemiancoding.com/sketch/ns">
    <!-- Generator: Sketch 3.0.4 (8054) - http://www.bohemiancoding.com/sketch -->
    <title>support@1x</title>
    <desc>Created with Sketch.</desc>
    <defs></defs>
    <g id="Agile-info-Final-Page" stroke="none" stroke-width="1" fill="none" fill-rule="evenodd" sketch:type="MSPage">
        <g id="Agile_site-layout" sketch:type="MSArtboardGroup" transform="translate(-1239.000000, -1433.000000)" fill="#F5A623">
            <g id="introducttion-section" sketch:type="MSLayerGroup" transform="translate(-2.000000, 1021.000000)">
                <path d="M1319.04154,476.77 L1321.69654,474.11875 L1319.04529,471.4675 L1311.09154,479.4175 L1297.83154,466.16125 L1313.76529,450.22375 C1315.88404,450.9775 1318.10404,451.36 1320.38029,451.36 C1325.63404,451.36 1330.56904,449.3125 1334.28529,445.60375 C1340.01904,439.87 1341.64279,431.3425 1338.42904,423.89125 L1337.33404,421.3525 L1328.79154,429.89875 L1321.91029,429.9925 L1322.00029,423.43 L1330.71154,414.71875 L1328.18029,413.62375 C1325.69404,412.5475 1323.05404,412 1320.33904,412 C1315.08529,412 1310.15029,414.0475 1306.44154,417.76 C1301.00404,423.1975 1299.25654,431.1325 1301.82529,438.29875 L1285.89904,454.22875 L1263.35404,431.6875 L1266.01279,429.03625 L1251.43279,414.46 L1243.47154,422.41 L1258.05529,436.99 L1260.70654,434.33875 L1283.24779,456.88 L1267.31779,472.81 C1265.19154,472.04875 1262.96029,471.6625 1260.68029,471.6625 C1255.42654,471.6625 1250.48779,473.70625 1246.77904,477.4225 C1241.03029,483.16375 1239.41029,491.695 1242.64279,499.1575 L1243.73779,501.68875 L1252.44904,492.98125 L1259.00779,492.895 L1258.91779,499.7725 L1250.37154,508.31875 L1252.90654,509.41375 C1255.38904,510.47875 1258.01404,511.0225 1260.71779,511.0225 C1265.97529,511.0225 1270.90654,508.97875 1274.61904,505.26625 C1280.04904,499.83625 1281.80029,491.90875 1279.24279,484.75375 L1295.18029,468.8125 L1308.44029,482.06875 L1300.48279,490.02625 L1303.13404,492.6775 L1305.78529,490.02625 L1325.67154,509.9125 C1327.44154,511.6825 1329.79654,512.66125 1332.30154,512.66125 C1334.80279,512.66125 1337.15779,511.6825 1338.93154,509.9125 C1342.58404,506.26 1342.58404,500.3125 1338.93154,496.65625 L1319.04154,476.77 Z" id="support" sketch:type="MSShapeGroup"></path>
            </g>
        </g>
    </g>
</svg>