<?xml version="1.0" encoding="UTF-8" standalone="no"?>
<svg width="132px" height="37px" viewBox="0 0 132 37" version="1.1" xmlns="http://www.w3.org/2000/svg" xmlns:xlink="http://www.w3.org/1999/xlink" xmlns:sketch="http://www.bohemiancoding.com/sketch/ns">
    <!-- Generator: Sketch 3.0.4 (8054) - http://www.bohemiancoding.com/sketch -->
    <title>agile_logo</title>
    <desc>Created with Sketch.</desc>
    <defs></defs>
    <g id="Agile-info-Final-Page" stroke="none" stroke-width="1" fill="none" fill-rule="evenodd" sketch:type="MSPage">
        <g id="Agile_site-layout" sketch:type="MSArtboardGroup" transform="translate(-226.000000, -20.000000)" fill="#FFFFFF">
            <g id="header-logo-and-tag" sketch:type="MSLayerGroup" transform="translate(-47.000000, -105.000000)">
                <g id="navigation_open" transform="translate(43.000000, 103.000000)" sketch:type="MSShapeGroup">
                    <g id="agile_logo" transform="translate(228.000000, 20.000000)">
                        <g id="agile" transform="translate(42.451613, 6.348405)">
                            <path d="M13.694021,0.835317728 L13.0192979,0.835317728 L-0.00544405939,28.2337392 L3.06806772,28.2337392 L7.37840174,19.7134984 L19.2600613,19.7134984 L23.5891093,28.2337392 L26.5501672,28.2337392 L13.694021,0.835317728 L13.694021,0.835317728 Z M8.61522398,17.0404817 L13.3566594,7.23151264 L18.0417829,17.0404817 L8.61522398,17.0404817 L8.61522398,17.0404817 Z" id="Fill-1"></path>
                            <path d="M56.1564933,0.690139507 L58.9300715,0.690139507 L58.9300715,25.1480755 L71.0594358,25.1480755 L72.5808802,27.7612835 L56.1564933,27.7612835 L56.1564933,0.690139507" id="Fill-2"></path>
                            <path d="M91.0178678,3.17420737 L91.0178678,0.668254182 L72.6441674,0.668254182 L72.6441674,25.0211072 L74.369594,27.7325486 L91.0178678,27.7325486 L91.0178678,25.0595318 L75.3661971,25.0595318 L75.3661971,14.8686556 L90.1672336,14.8686556 L90.1672336,12.3627024 L75.3661971,12.3627024 L75.3661971,3.17420737 L91.0178678,3.17420737" id="Fill-3"></path>
                            <path d="M51.2340429,0.690139507 L53.9889071,0.690139507 L53.9889071,27.7612835 L51.2340429,27.7612835 L51.2340429,0.690139507 Z" id="Fill-4"></path>
                            <path d="M39.4694305,14.5345285 L39.4694305,17.0404817 L46.0533399,17.0404817 C45.6909697,19.7134984 44.5290032,21.7598598 42.5676107,23.3302571 C40.6060481,24.9006544 38.2072594,25.7757333 35.3710746,25.7757333 C33.0347225,25.7757333 30.8858502,25.2962609 28.9242875,24.2472689 C26.9627249,23.1982769 25.425969,21.7792391 24.3140198,19.9450485 C23.2020707,18.1108578 22.6460962,16.1866199 22.6460962,14.1499482 C22.6460962,12.1623932 23.1833568,10.2817589 24.257878,8.49668487 C25.3322291,6.71144382 26.8472087,5.30025805 28.8024767,4.2574474 C30.7577446,3.21463674 32.8161095,2.69456793 34.9775712,2.69456793 C36.7142261,2.69456793 38.4976659,3.07864702 40.3280608,3.84546869 C42.1582855,4.61229037 43.8418609,5.73829866 45.3786168,7.22282533 L47.5150698,5.23543739 C45.5535072,3.40742808 43.5420973,2.07943995 41.4805001,1.25130596 C39.419073,0.423171961 37.2201834,0.00902143146 34.8838313,0.00902143146 C31.9977993,0.00902143146 29.4115308,0.631667266 27.125196,1.87695894 C24.8386911,3.12241767 23.0397697,4.84918648 21.7277514,7.05759948 C20.9237319,8.41114833 20.3687781,9.83219085 20.057616,11.3193905 L27.201583,26.5512422 C29.5113953,27.8050542 32.2053541,28.4422345 35.2960486,28.4422345 C39.4940989,28.4422345 42.8454279,27.0860127 45.3505458,24.626169 C47.8554936,22.1661583 49.1205569,18.8781807 49.1455656,14.5345285 L39.4694305,14.5345285" id="Fill-5"></path>
                        </g>
                        <g id="Imported-Layers" transform="translate(21.693548, 20.500000) rotate(7.000000) translate(-21.693548, -20.500000) translate(2.000000, 2.000000)">
                            <path d="M4.67879317,23.1714153 L11.4023372,7.89180171 L26.2150284,5.77512387 L24.4725783,3.63500148 L7.15452524,6.1098003 L0.43317604,21.4051152 L11.02988,34.2258465 L13.5352418,33.8677255 L4.67879317,23.1714153" id="Fill-1"></path>
                            <path d="M37.2673724,12.4400457 L26.6719854,-0.371651786 L9.35371277,2.10314704 L8.41148601,4.19250874 L25.4644075,1.75578044 L36.0665984,14.6163029" id="Fill-2"></path>
                            <path d="M6.84944832,22.8737339 L16.0164609,33.947523 L31.0025412,31.8061101 L31.8411735,30.1658515 L17.0844495,32.274571 L7.89987862,21.0723746" id="Fill-3"></path>
                            <path d="M28.6887852,7.37623655 L26.8416432,7.64036421 L36.1372709,18.936554 L29.6713962,33.7337259 L14.8360985,35.8538451 L15.7350878,36.8114154 L32.4173079,34.4273836 L38.8941566,19.7097942 L28.6887852,7.37623655" id="Fill-4"></path>
                        </g>
                    </g>
                </g>
            </g>
        </g>
    </g>
</svg>