<?xml version="1.0" encoding="UTF-8" standalone="no"?>
<svg width="358px" height="87px" viewBox="0 0 358 87" version="1.1" xmlns="http://www.w3.org/2000/svg" xmlns:xlink="http://www.w3.org/1999/xlink" xmlns:sketch="http://www.bohemiancoding.com/sketch/ns">
    <!-- Generator: Sketch 3.0.4 (8054) - http://www.bohemiancoding.com/sketch -->
    <title>Agile Logo-color@1x</title>
    <desc>Created with Sketch.</desc>
    <defs></defs>
    <g id="Agile-info-Final-Page" stroke="none" stroke-width="1" fill="none" fill-rule="evenodd" sketch:type="MSPage">
        <g id="Agile_site-layout" sketch:type="MSArtboardGroup" transform="translate(-535.000000, -460.000000)">
            <g id="header-logo-and-tag" sketch:type="MSLayerGroup" transform="translate(-47.000000, -105.000000)">
                <g id="Agile-Logo-color" transform="translate(582.102767, 565.000000)" sketch:type="MSShapeGroup">
                    <path d="M127.288421,2.6761101 L125.287196,2.6761101 L86.6515993,85.6355231 L95.7682398,85.6355231 L108.554387,59.7664588 L143.79897,59.7664588 L156.640459,85.6355231 L165.423711,85.6355231 L127.288421,2.6761101 L127.288421,2.6761101 Z M112.223002,51.2921102 L126.287808,21.680952 L140.185251,51.2921102 L112.223002,51.2921102 L112.223002,51.2921102 Z" id="Fill-1" fill="#015294"></path>
                    <path d="M253.245518,2.27959978 L261.472676,2.27959978 L261.472676,76.1130313 L297.451875,76.1130313 L301.965341,84.0017578 L253.245518,84.0017578 L253.245518,2.27959978" id="Fill-2" fill="#015294"></path>
                    <path d="M356.596454,9.81240368 L356.596454,2.23009175 L302.147433,2.23009175 L302.147433,75.7299015 L307.270997,83.8514497 L356.596454,83.8514497 L356.596454,75.8231194 L310.180895,75.8231194 L310.180895,45.0478533 L354.364936,45.0478533 L354.364936,37.019523 L310.180895,37.019523 L310.180895,9.81240368 L356.596454,9.81240368" id="Fill-3" fill="#015294"></path>
                    <path d="M238.643808,2.27959978 L246.815624,2.27959978 L246.815624,84.0017578 L238.643808,84.0017578 L238.643808,2.27959978 Z" id="Fill-4" fill="#015294"></path>
                    <path d="M203.514371,44.1558166 L203.514371,51.2921102 L223.276242,51.2921102 C222.201097,59.7664588 218.754742,65.7118834 212.936284,70.4526124 C207.117825,75.1933415 200.001963,77.9216357 191.589143,77.9216357 C184.658943,77.9216357 178.284391,76.5171239 172.465933,73.3503936 C166.647475,70.1836634 162.088932,65.921512 158.790749,60.3846402 C155.492121,54.8473224 153.843029,49.0495299 153.843029,42.901613 C153.843029,36.9013281 155.436779,31.2293128 158.623832,25.8405191 C161.810885,20.4517254 166.304714,16.1944802 172.104874,13.0460367 C177.904587,9.89803921 184.010465,8.32939267 190.42206,8.32939267 C195.573294,8.32939267 200.863775,9.48993242 206.293057,11.8047676 C211.722338,14.1196029 216.716474,17.5187087 221.275017,22.0003011 L227.61208,16.0009083 C221.793622,10.4827693 215.826991,6.47395634 209.711741,3.97357747 C203.596938,1.47364463 197.074213,0.223901211 190.144013,0.223901211 C181.582574,0.223901211 173.91151,2.10342254 167.129037,5.8629112 C160.34701,9.62195385 155.010559,14.8350163 151.118793,21.5016526 C148.733748,25.5876267 147.08778,29.8778772 146.164379,34.3670519 L167.355759,80.3488676 C174.207856,84.1342253 182.198919,86.0570104 191.366884,86.0570104 C203.819197,86.0570104 213.760606,82.0044877 221.191558,74.5787282 C228.622064,67.1525227 232.374584,57.5363671 232.44867,44.1558166 L203.514371,44.1558166" id="Fill-5" fill="#015294"></path>
                    <path d="M8.9483841,47.4496621 L29.4288029,14.2328915 L63.8477247,14.2427039 L60.6093469,8.69869587 L20.368843,8.68709939 L-0.111575862,41.9408895 L19.6480629,75.206722 L25.4696451,75.2085061 L8.9483841,47.4496621" id="Fill-6" fill="#015294"></path>
                    <path d="M86.7323802,33.3782292 L66.9722951,0.133359486 L26.7317912,0.121763009 L23.8790196,4.65643157 L63.5031785,4.66802804 L83.2619246,38.0284165" id="Fill-7" fill="#5F83A5"></path>
                    <path d="M13.9875963,47.4799913 L31.0872665,76.2178456 L65.9096466,76.228104 L68.373688,72.7014369 L34.0850868,72.6911785 L16.9885407,43.6491397" id="Fill-8" fill="#D88800"></path>
                    <path d="M68.9324599,18.7796026 L64.6403596,18.7787106 L81.9569333,48.0754258 L62.2267506,80.2587719 L27.7556113,80.2485134 L29.4756648,82.7689631 L68.2389043,82.7801136 L87.9673019,50.7854333 L68.9324599,18.7796026" id="Fill-9" fill="#81B245"></path>
                </g>
            </g>
        </g>
    </g>
</svg>