<?xml version="1.0" encoding="UTF-8" standalone="no"?>
<svg width="1440px" height="4730px" viewBox="0 0 1440 4730" version="1.1" xmlns="http://www.w3.org/2000/svg" xmlns:xlink="http://www.w3.org/1999/xlink" xmlns:sketch="http://www.bohemiancoding.com/sketch/ns">
    <!-- Generator: Sketch 3.0.4 (8054) - http://www.bohemiancoding.com/sketch -->
    <title>background shapes</title>
    <desc>Created with Sketch.</desc>
    <defs></defs>
    <g id="Agile-info-Final-Page" stroke="none" stroke-width="1" fill="none" fill-rule="evenodd" sketch:type="MSPage">
        <g id="Agile_site-layout" sketch:type="MSArtboardGroup" transform="translate(0.000000, -1728.000000)" stroke="#FFFFFF" stroke-width="3">
            <g id="background-shapes" sketch:type="MSLayerGroup" transform="translate(-439.000000, 1679.000000)">
                <g id="Imported-Layers-+-Imported-Layers-+-Imported-Layers" transform="translate(0.000000, 1749.000000)" sketch:type="MSShapeGroup">
                    <path d="M91.1743453,379.522469 L242.659941,115.974363 L545.631133,115.974363 L697.116728,379.522469 L545.631133,643.070576 L242.659941,643.070576 L91.1743453,379.522469 Z" id="Imported-Layers" transform="translate(393.504800, 379.654776) rotate(-30.000000) translate(-393.504800, -379.654776) "></path>
                    <path d="M369.383494,809.233044 L477.458484,621.208837 L693.608464,621.208837 L801.683454,809.233044 L693.608464,997.25725 L477.458484,997.25725 L369.383494,809.233044 Z" id="Imported-Layers" transform="translate(585.076350, 809.327437) rotate(-30.000000) translate(-585.076350, -809.327437) "></path>
                    <path d="M764.208312,837.276892 L840.047594,705.334979 L991.726158,705.334979 L1067.56544,837.276892 L991.726158,969.218804 L840.047594,969.218804 L764.208312,837.276892 Z" id="Imported-Layers" transform="translate(915.566099, 837.343130) rotate(-30.000000) translate(-915.566099, -837.343130) "></path>
                </g>
                <g id="Imported-Layers-+-Imported-Layers-+-Imported-Layers" transform="translate(169.011719, 2807.267436)" sketch:type="MSShapeGroup">
                    <path d="M64.9587771,270.397505 L172.887373,82.6279886 L388.744564,82.6279886 L496.67316,270.397505 L388.744564,458.167021 L172.887373,458.167021 L64.9587771,270.397505 Z" id="Imported-Layers" transform="translate(280.359464, 270.491770) rotate(-30.000000) translate(-280.359464, -270.491770) "></path>
                    <path d="M263.173813,576.552415 L340.173753,442.591238 L494.173635,442.591238 L571.173575,576.552415 L494.173635,710.513591 L340.173753,710.513591 L263.173813,576.552415 Z" id="Imported-Layers" transform="translate(416.848008, 576.619666) rotate(-30.000000) translate(-416.848008, -576.619666) "></path>
                    <path d="M544.473747,596.532751 L598.506786,502.528398 L706.572866,502.528398 L760.605906,596.532751 L706.572866,690.537103 L598.506786,690.537103 L544.473747,596.532751 Z" id="Imported-Layers" transform="translate(652.311283, 596.579943) rotate(-30.000000) translate(-652.311283, -596.579943) "></path>
                </g>
                <g id="Imported-Layers-+-Imported-Layers-+-Imported-Layers" transform="translate(1332.011719, 4046.267436)" sketch:type="MSShapeGroup">
                    <path d="M64.9587771,270.397505 L172.887373,82.6279886 L388.744564,82.6279886 L496.67316,270.397505 L388.744564,458.167021 L172.887373,458.167021 L64.9587771,270.397505 Z" id="Imported-Layers" transform="translate(280.359464, 270.491770) rotate(-30.000000) translate(-280.359464, -270.491770) "></path>
                    <path d="M263.173813,576.552415 L340.173753,442.591238 L494.173635,442.591238 L571.173575,576.552415 L494.173635,710.513591 L340.173753,710.513591 L263.173813,576.552415 Z" id="Imported-Layers" transform="translate(416.848008, 576.619666) rotate(-30.000000) translate(-416.848008, -576.619666) "></path>
                    <path d="M544.473747,596.532751 L598.506786,502.528398 L706.572866,502.528398 L760.605906,596.532751 L706.572866,690.537103 L598.506786,690.537103 L544.473747,596.532751 Z" id="Imported-Layers" transform="translate(652.311283, 596.579943) rotate(-30.000000) translate(-652.311283, -596.579943) "></path>
                </g>
                <g id="Imported-Layers-+-Imported-Layers-+-Imported-Layers" transform="translate(189.000000, 1937.000000)" sketch:type="MSShapeGroup">
                    <path d="M69.2204149,288.155949 L184.229695,88.0546086 L414.248254,88.0546086 L529.257534,288.155949 L414.248254,488.257289 L184.229695,488.257289 L69.2204149,288.155949 Z" id="Imported-Layers" transform="translate(298.752521, 288.256404) rotate(-30.000000) translate(-298.752521, -288.256404) "></path>
                    <path d="M280.4394,614.417681 L362.490943,471.658562 L526.594027,471.658562 L608.645569,614.417681 L526.594027,757.176801 L362.490943,757.176801 L280.4394,614.417681 Z" id="Imported-Layers" transform="translate(444.195432, 614.489350) rotate(-30.000000) translate(-444.195432, -614.489350) "></path>
                    <path d="M580.194091,635.710233 L637.771983,535.532114 L752.927766,535.532114 L810.505658,635.710233 L752.927766,735.888351 L637.771983,735.888351 L580.194091,635.710233 Z" id="Imported-Layers" transform="translate(695.106338, 635.760524) rotate(-30.000000) translate(-695.106338, -635.760524) "></path>
                </g>
                <g id="Imported-Layers-+-Imported-Layers-+-Imported-Layers" transform="translate(604.685724, 3344.323127) scale(-1, 1) translate(-604.685724, -3344.323127) translate(303.668116, 3052.211366)" sketch:type="MSShapeGroup">
                    <path d="M49.3173105,205.301809 L131.257709,62.7360654 L295.138506,62.7360654 L377.078904,205.301809 L295.138506,347.867553 L131.257709,347.867553 L49.3173105,205.301809 Z" id="Imported-Layers" transform="translate(212.851525, 205.373381) rotate(-30.000000) translate(-212.851525, -205.373381) "></path>
                    <path d="M199.804018,437.752759 L258.263092,336.041496 L375.181241,336.041496 L433.640316,437.752759 L375.181241,539.464023 L258.263092,539.464023 L199.804018,437.752759 Z" id="Imported-Layers" transform="translate(316.474903, 437.803821) rotate(-30.000000) translate(-316.474903, -437.803821) "></path>
                    <path d="M413.369556,452.923014 L454.391945,381.549339 L536.436722,381.549339 L577.459111,452.923014 L536.436722,524.296689 L454.391945,524.296689 L413.369556,452.923014 Z" id="Imported-Layers" transform="translate(495.240821, 452.958846) rotate(-30.000000) translate(-495.240821, -452.958846) "></path>
                </g>
                <g id="Imported-Layers-+-Imported-Layers-+-Imported-Layers" transform="translate(1887.685724, 4447.105683) scale(-1, 1) translate(-1887.685724, -4447.105683) translate(1620.898288, 4188.211366)" sketch:type="MSShapeGroup">
                    <path d="M43.7092001,181.955945 L116.331759,55.6020433 L261.576875,55.6020433 L334.199434,181.955945 L261.576875,308.309847 L116.331759,308.309847 L43.7092001,181.955945 Z" id="Imported-Layers" transform="translate(188.647146, 182.019378) rotate(-30.000000) translate(-188.647146, -182.019378) "></path>
                    <path d="M177.083334,387.973771 L228.894744,297.828588 L332.517564,297.828588 L384.328973,387.973771 L332.517564,478.118953 L228.894744,478.118953 L177.083334,387.973771 Z" id="Imported-Layers" transform="translate(280.487007, 388.019026) rotate(-30.000000) translate(-280.487007, -388.019026) "></path>
                    <path d="M366.3633,401.418943 L402.720834,338.161515 L475.435902,338.161515 L511.793436,401.418943 L475.435902,464.676371 L402.720834,464.676371 L366.3633,401.418943 Z" id="Imported-Layers" transform="translate(438.924587, 401.450700) rotate(-30.000000) translate(-438.924587, -401.450700) "></path>
                </g>
                <g id="Imported-Layers-+-Imported-Layers-+-Imported-Layers" transform="translate(1364.000000, 15.000000)" sketch:type="MSShapeGroup">
                    <path d="M74.1354739,308.537711 L197.311093,94.2828614 L443.662332,94.2828614 L566.837951,308.537711 L443.662332,522.79256 L197.311093,522.79256 L74.1354739,308.537711 Z" id="Imported-Layers" transform="translate(319.965718, 308.645272) rotate(-30.000000) translate(-319.965718, -308.645272) "></path>
                    <path d="M300.352257,657.876493 L388.229944,505.019777 L563.985319,505.019777 L651.863006,657.876493 L563.985319,810.733209 L388.229944,810.733209 L300.352257,657.876493 Z" id="Imported-Layers" transform="translate(475.735936, 657.953231) rotate(-30.000000) translate(-475.735936, -657.953231) "></path>
                </g>
                <g id="Imported-Layers-+-Imported-Layers-+-Imported-Layers" transform="translate(1426.000000, 0.000000)" sketch:type="MSShapeGroup">
                    <path d="M62.5031675,260.043173 L166.351783,79.4639151 L374.049015,79.4639151 L477.897631,260.043173 L374.049015,440.622431 L166.351783,440.622431 L62.5031675,260.043173 Z" id="Imported-Layers" transform="translate(269.761152, 260.133828) rotate(-30.000000) translate(-269.761152, -260.133828) "></path>
                    <path d="M253.225163,554.474493 L327.314307,425.643092 L475.492595,425.643092 L549.581739,554.474493 L475.492595,683.305894 L327.314307,683.305894 L253.225163,554.474493 Z" id="Imported-Layers" transform="translate(401.090077, 554.539169) rotate(-30.000000) translate(-401.090077, -554.539169) "></path>
                </g>
            </g>
        </g>
    </g>
</svg>